<?xml version="1.0" encoding="UTF-8" standalone="no"?>
<!-- Created with Inkscape (http://www.inkscape.org/) -->

<svg
   xmlns:dc="http://purl.org/dc/elements/1.1/"
   xmlns:cc="http://creativecommons.org/ns#"
   xmlns:rdf="http://www.w3.org/1999/02/22-rdf-syntax-ns#"
   xmlns:svg="http://www.w3.org/2000/svg"
   xmlns="http://www.w3.org/2000/svg"
   xmlns:sodipodi="http://sodipodi.sourceforge.net/DTD/sodipodi-0.dtd"
   xmlns:inkscape="http://www.inkscape.org/namespaces/inkscape"
   width="210mm"
   height="297mm"
   viewBox="0 0 210 297"
   version="1.1"
   id="svg8"
   inkscape:version="0.92.4 (5da689c313, 2019-01-14)"
   sodipodi:docname="gClef.svg">
  <defs
     id="defs2" />
  <sodipodi:namedview
     id="base"
     pagecolor="#1DB954"
     bordercolor="#1DB954"
     borderopacity="1.0"
     inkscape:pageopacity="0.0"
     inkscape:pageshadow="2"
     inkscape:zoom="0.35"
     inkscape:cx="-64.285714"
     inkscape:cy="560"
     inkscape:document-units="mm"
     inkscape:current-layer="layer1"
     showgrid="false"
     inkscape:window-width="1920"
     inkscape:window-height="1057"
     inkscape:window-x="-8"
     inkscape:window-y="-8"
     inkscape:window-maximized="1" />
  <metadata
     id="metadata5">
    <rdf:RDF>
      <cc:Work
         rdf:about="">
        <dc:format>image/svg+xml</dc:format>
        <dc:type
           rdf:resource="http://purl.org/dc/dcmitype/StillImage" />
        <dc:title></dc:title>
      </cc:Work>
    </rdf:RDF>
  </metadata>
  <g
     inkscape:label="Layer 1"
     inkscape:groupmode="layer"
     id="layer1">
    <path
       style="fill:#000000;fill-opacity:1;stroke-width:0.14630109"
       d="m 106.66566,282.56978 c -0.20117,-0.0349 -0.95827,-0.13583 -1.68246,-0.22449 -1.72738,-0.21147 -4.7988,-1.00454 -6.388862,-1.64967 -8.7769,-3.56104 -15.474534,-11.53198 -17.609087,-20.95683 -1.40892,-6.22088 0.237734,-12.38492 4.492373,-16.81665 5.182122,-5.39782 13.133983,-6.85815 19.846546,-3.64474 5.14392,2.46247 8.77276,7.26855 9.7592,12.92516 0.28278,1.62162 0.27501,4.63944 -0.0159,6.17306 -0.86365,4.55276 -3.2134,8.38656 -6.80078,11.09593 -1.24729,0.94202 -3.59524,2.19157 -4.85622,2.58442 -0.46268,0.14415 -0.84123,0.31045 -0.84123,0.36955 0,0.10897 0.56702,0.24928 2.41397,0.59714 1.56088,0.29401 6.48489,0.24745 8.48547,-0.0802 4.46142,-0.73074 6.71599,-1.56482 8.85422,-3.27562 5.5019,-4.40207 8.48423,-13.04591 7.89191,-22.8736 -0.19717,-3.27139 -0.32279,-3.97727 -2.7156,-15.26048 -1.15886,-5.46452 -2.107,-9.99937 -2.107,-10.07746 0,-0.0813 -0.2341,-0.10622 -0.54863,-0.0583 -0.30175,0.046 -1.42379,0.21665 -2.49342,0.37921 -7.93462,1.20581 -16.58567,0.40949 -24.828307,-2.2854 -5.357124,-1.75149 -9.408998,-3.73078 -14.337509,-7.00372 -5.133585,-3.40913 -9.415273,-7.30264 -13.103499,-11.91555 -6.184552,-7.73509 -9.869632,-16.37148 -11.202995,-26.25548 -0.319689,-2.36977 -0.368741,-9.11716 -0.08402,-11.55778 1.194819,-10.24205 4.330765,-19.29569 9.881621,-28.52872 6.078701,-10.11103 15.062231,-20.30127 28.88348,-32.76322 1.065898,-0.96108 1.937992,-1.800551 1.937992,-1.865506 0,-0.06493 -0.55307,-2.734977 -1.229045,-5.933401 C 96.050154,83.17415 95.294632,78.543169 94.753296,72.124739 93.580014,58.213689 95.55146,46.996296 101.24903,35.164424 c 3.7241,-7.733635 7.94201,-12.669103 12.80485,-14.983205 2.16916,-1.032237 3.10625,-1.237514 5.6326,-1.233848 2.4948,0.0038 3.7741,0.294766 5.76962,1.312991 7.43701,3.794837 12.81427,14.077652 14.49822,27.724696 0.32338,2.620578 0.4508,9.742513 0.22786,12.733422 -1.42575,19.126508 -9.43969,37.043035 -25.25861,56.46992 l -1.49151,1.8317 2.50485,11.56482 2.50487,11.56481 2.717,-0.0651 c 5.83596,-0.13977 10.7052,0.96778 15.90074,3.61681 3.69596,1.88444 7.07134,4.39395 10.43332,7.75692 5.44573,5.44728 8.01743,9.71526 9.57114,15.88416 0.78792,3.12849 1.02225,5.22248 1.01496,9.06994 -0.0139,7.3005 -1.58826,13.80102 -5.03157,20.77476 -3.54509,7.17988 -8.3475,12.80737 -14.27772,16.73072 -1.05107,0.69538 -2.3501,1.49474 -2.88671,1.77636 -0.66538,0.34921 -0.95573,0.58186 -0.91294,0.73152 0.29455,1.03045 4.8209,22.32588 5.0417,23.72008 1.3479,8.51101 0.65995,16.16374 -2.04159,22.71022 -1.46302,3.54526 -3.36463,6.404 -6.05761,9.10664 -4.50623,4.52238 -10.04009,7.21749 -16.9808,8.2701 -1.79947,0.27289 -7.3326,0.49841 -8.26602,0.33691 z m 11.77813,-70.80201 c 2.07272,-0.24077 4.16404,-0.61959 4.47233,-0.81012 0.15591,-0.0963 -0.76921,-4.67086 -4.60495,-22.77013 -2.64002,-12.45725 -4.82419,-22.6751 -4.8537,-22.70636 -0.10234,-0.10834 -2.58067,1.15671 -3.58108,1.82793 -1.93789,1.30018 -4.02306,3.72118 -5.15293,5.98284 -0.56156,1.12408 -1.2409,3.15595 -1.57997,4.72567 -0.39211,1.81525 -0.54453,6.41528 -0.29274,8.83501 0.34845,3.34875 0.82472,4.73646 2.29879,6.69795 1.30098,1.73118 4.33137,4.54367 7.60432,7.05751 0.99785,0.76642 1.37316,1.39774 1.37316,2.30984 0,0.83751 -0.37621,1.56368 -1.03652,2.00063 -1.02368,0.67745 -1.38523,0.63231 -4.38135,-0.54703 -6.35614,-2.50191 -10.655597,-5.20459 -14.627905,-9.19524 -3.707108,-3.72422 -5.831909,-7.28577 -7.077422,-11.86306 -1.129017,-4.14916 -1.132826,-9.1588 -0.01038,-13.6171 1.187486,-4.71651 3.593302,-9.44757 6.912937,-13.59432 1.357804,-1.69611 4.057461,-4.4046 5.736801,-5.75556 1.971479,-1.58596 5.018929,-3.54555 7.241909,-4.65672 1.12652,-0.56309 2.06937,-1.0818 2.09523,-1.15269 0.0653,-0.17913 -3.3765,-16.38148 -3.4769,-16.36723 -0.0448,0.006 -1.10179,1.13489 -2.34901,2.50786 -1.24722,1.37294 -4.506073,4.90839 -7.241903,7.85652 -10.375796,11.18098 -12.181939,13.23888 -13.964475,15.91117 -2.210767,3.31426 -3.684028,6.56436 -4.599053,10.14576 -0.83623,3.27299 -1.028745,4.8988 -1.030299,8.70103 -0.0016,3.49186 0.161853,5.11177 0.811049,8.04657 2.070672,9.36076 7.606665,18.11946 14.885426,23.55082 5.128868,3.82711 12.065595,6.36684 19.112675,6.99767 1.6114,0.14427 5.60837,0.0791 7.31594,-0.11922 z m 15.36628,-5.83174 c 3.44655,-2.75763 5.46554,-5.81531 7.08629,-10.73194 2.73269,-8.28966 2.12174,-15.45878 -1.8237,-21.40011 -1.11502,-1.67907 -3.95089,-4.45923 -5.73452,-5.62191 -1.82583,-1.19014 -3.75588,-2.11745 -5.76602,-2.77029 -1.60148,-0.52011 -4.04614,-1.05552 -4.18508,-0.91658 -0.10047,0.10047 9.04862,42.37283 9.17084,42.37283 0.048,0 0.61153,-0.4194 1.25219,-0.932 z M 110.64555,89.404703 c 3.90035,-3.8105 6.20951,-6.439673 7.98106,-9.087111 0.98561,-1.472929 4.05434,-7.501049 5.13894,-10.094778 3.0011,-7.17692 4.4186,-13.742993 4.21644,-19.531194 -0.15594,-4.464713 -1.20523,-8.10503 -2.46253,-8.543332 -2.00917,-0.700402 -6.01185,1.0899 -9.54712,4.270183 -4.98207,4.481841 -8.72963,12.177206 -10.09626,20.732027 -0.82335,5.15403 -0.66569,11.854753 0.43373,18.433934 0.49709,2.974782 1.26192,6.583547 1.39528,6.583547 0.0615,0 1.38481,-1.243469 2.94046,-2.763276 z"
       id="path21"
       inkscape:connector-curvature="0" />
  </g>
</svg>
